<svg width="24" height="24" viewBox="0 0 24 24" fill="none" xmlns="http://www.w3.org/2000/svg">
<path fill-rule="evenodd" clip-rule="evenodd" d="M1.46967 1.96967C1.76256 1.67678 2.23744 1.67678 2.53033 1.96967L22.0303 21.4697C22.3232 21.7626 22.3232 22.2374 22.0303 22.5303C21.7374 22.8232 21.2626 22.8232 20.9697 22.5303L14.75 16.3107V20C14.75 20.2674 14.6077 20.5145 14.3764 20.6487C14.1452 20.7829 13.86 20.7838 13.6279 20.6512L6.80083 16.75H4C2.48122 16.75 1.25 15.5188 1.25 14V10C1.25 8.48122 2.48122 7.25 4 7.25H5.68934L1.46967 3.03033C1.17678 2.73744 1.17678 2.26256 1.46967 1.96967ZM6.25 8.75H4C3.30964 8.75 2.75 9.30964 2.75 10V14C2.75 14.6904 3.30964 15.25 4 15.25H6.25V8.75ZM7.75 15.5648L13.25 18.7076V14.8107L7.75 9.31066V15.5648ZM14.3764 3.35132C14.6077 3.48551 14.75 3.73265 14.75 4V10.6606C14.75 11.0748 14.4142 11.4106 14 11.4106C13.5858 11.4106 13.25 11.0748 13.25 10.6606V5.29239L10.1335 7.07323C9.77388 7.27874 9.31574 7.15379 9.11024 6.79415C8.90473 6.43451 9.02968 5.97637 9.38931 5.77086L13.6279 3.34882C13.86 3.21617 14.1452 3.21713 14.3764 3.35132ZM18.277 4.67025C18.5462 4.35548 19.0197 4.31856 19.3344 4.5878C21.4238 6.37491 22.75 9.03298 22.75 12C22.75 14.0439 22.1203 15.9429 21.0442 17.5109C20.8098 17.8524 20.343 17.9392 20.0015 17.7049C19.6599 17.4705 19.5731 17.0036 19.8075 16.6621C20.7175 15.336 21.25 13.7313 21.25 12C21.25 9.48978 20.1298 7.24199 18.3594 5.7277C18.0447 5.45846 18.0077 4.98502 18.277 4.67025ZM16.1173 6.8179C16.3734 6.49235 16.8449 6.43605 17.1705 6.69216C18.7399 7.92681 19.75 9.84566 19.75 12C19.75 13.1863 19.4433 14.3032 18.9043 15.2735C18.7032 15.6356 18.2466 15.7661 17.8845 15.565C17.5224 15.3638 17.3919 14.9072 17.5931 14.5451C18.0114 13.792 18.25 12.925 18.25 12C18.25 10.3251 17.4665 8.83358 16.243 7.87108C15.9175 7.61497 15.8612 7.14345 16.1173 6.8179Z" fill="white"/>
</svg>
