<svg width="24" height="24" viewBox="0 0 24 24" fill="none" xmlns="http://www.w3.org/2000/svg">
<path fill-rule="evenodd" clip-rule="evenodd" d="M14.3764 3.35132C14.6077 3.48551 14.75 3.73265 14.75 4V20C14.75 20.2674 14.6077 20.5145 14.3764 20.6487C14.1452 20.7829 13.86 20.7838 13.6279 20.6512L6.80083 16.75H4C2.48122 16.75 1.25 15.5188 1.25 14V10C1.25 8.48122 2.48122 7.25 4 7.25H6.80083L13.6279 3.34882C13.86 3.21617 14.1452 3.21713 14.3764 3.35132ZM6.25 8.75H4C3.30964 8.75 2.75 9.30964 2.75 10V14C2.75 14.6904 3.30964 15.25 4 15.25H6.25V8.75ZM7.75 15.5648L13.25 18.7076V5.29239L7.75 8.43524V15.5648ZM18.277 4.67025C18.5462 4.35548 19.0197 4.31856 19.3344 4.5878C21.4238 6.37491 22.75 9.03298 22.75 12C22.75 14.9685 21.4225 17.6276 19.3314 19.4148C19.0165 19.6839 18.5431 19.6468 18.274 19.3319C18.0049 19.017 18.042 18.5436 18.3569 18.2745C20.1287 16.7602 21.25 14.5114 21.25 12C21.25 9.48978 20.1298 7.24199 18.3594 5.7277C18.0447 5.45846 18.0077 4.98502 18.277 4.67025ZM16.1173 6.8179C16.3734 6.49235 16.8449 6.43605 17.1705 6.69216C18.7399 7.92681 19.75 9.84566 19.75 12C19.75 14.1534 18.7408 16.0714 17.1726 17.3062C16.8471 17.5624 16.3756 17.5063 16.1194 17.1808C15.8631 16.8554 15.9192 16.3838 16.2447 16.1276C17.4672 15.1651 18.25 13.6742 18.25 12C18.25 10.3251 17.4665 8.83358 16.243 7.87108C15.9175 7.61497 15.8612 7.14345 16.1173 6.8179Z" fill="white"/>
</svg>
