<svg width="31" height="31" viewBox="0 0 31 31" fill="none" xmlns="http://www.w3.org/2000/svg">
<path d="M22.1115 30.2783H8.14633C3.65538 30.2783 0 26.6216 0 22.1265V8.15186C0 3.65669 3.65538 0 8.14633 0H22.1115C26.6024 0 30.2578 3.65669 30.2578 8.15186V22.1265C30.2578 26.6216 26.6024 30.2783 22.1115 30.2783ZM8.14633 2.3291C4.93784 2.3291 2.32752 4.94119 2.32752 8.15186V22.1265C2.32752 25.3371 4.93784 27.9492 8.14633 27.9492H22.1115C25.32 27.9492 27.9303 25.3371 27.9303 22.1265V8.15186C27.9303 4.94119 25.32 2.3291 22.1115 2.3291H8.14633Z" fill="white"/>
<path d="M15.1463 23.3037C10.6554 23.3037 7 19.647 7 15.1519C7 10.6567 10.6554 7 15.1463 7C19.6372 7 23.2926 10.6567 23.2926 15.1519C23.2926 19.647 19.6372 23.3037 15.1463 23.3037ZM15.1463 9.3291C11.9378 9.3291 9.32751 11.9412 9.32751 15.1519C9.32751 18.3625 11.9378 20.9746 15.1463 20.9746C18.3548 20.9746 20.9651 18.3625 20.9651 15.1519C20.9651 11.9412 18.3548 9.3291 15.1463 9.3291Z" fill="white"/>
<path d="M24.7456 7.49414C25.7097 7.49414 26.4912 6.71195 26.4912 5.74707C26.4912 4.78219 25.7097 4 24.7456 4C23.7815 4 23 4.78219 23 5.74707C23 6.71195 23.7815 7.49414 24.7456 7.49414Z" fill="white"/>
</svg>
