<svg width="30" height="24" viewBox="0 0 30 24" fill="none" xmlns="http://www.w3.org/2000/svg">
<path d="M30 2.83765C28.8977 3.32259 27.7123 3.64588 26.4614 3.79906C27.7329 3.04941 28.7115 1.85365 29.1706 0.440471C27.9809 1.13294 26.6626 1.64188 25.2604 1.91012C24.1403 0.731294 22.5426 0 20.773 0C17.3737 0 14.6176 2.71271 14.6176 6.05788C14.6176 6.53153 14.6738 6.99247 14.7783 7.44C9.66408 7.18518 5.12769 4.77035 2.09301 1.10541C1.55998 2.00118 1.26007 3.04941 1.26007 4.15623C1.26007 6.25906 2.34388 8.11059 3.99697 9.20118C2.98778 9.17082 2.03828 8.892 1.20677 8.44447C1.20677 8.46282 1.20677 8.48965 1.20677 8.51576C1.20677 11.4544 3.32891 13.9016 6.14186 14.4586C5.62802 14.5984 5.08434 14.676 4.52431 14.676C4.12703 14.676 3.7397 14.6315 3.36445 14.5645C4.14764 16.9659 6.41974 18.7214 9.11187 18.7736C7.00536 20.3958 4.35232 21.3671 1.46759 21.3671C0.969393 21.3671 0.481854 21.3388 0 21.2809C2.72695 22.9955 5.96276 24 9.43665 24C20.7559 24 26.949 14.7678 26.949 6.75812C26.949 6.49553 26.9404 6.23435 26.9284 5.976C28.1365 5.12824 29.1777 4.05953 30 2.83765Z" fill="url(#paint0_linear_25_74)"/>
<defs>
<linearGradient id="paint0_linear_25_74" x1="4.58258" y1="0.926118" x2="26.0811" y2="22.5714" gradientUnits="userSpaceOnUse">
<stop stop-color="white"/>
<stop offset="1" stop-color="white"/>
</linearGradient>
</defs>
</svg>
