<svg width="101" height="18" viewBox="0 0 101 18" fill="none" xmlns="http://www.w3.org/2000/svg">
<path d="M0.6 17V11.88H5.48V17H0.6ZM20.6591 0.899999V3.361H15.9211V17H13.2991V3.361H8.56113V0.899999H20.6591ZM33.2024 0.899999H35.8474V17H33.2024V9.985H25.8424V17H23.1974V0.899999H25.8424V7.478H33.2024V0.899999ZM42.5758 14.493H49.5448V17H39.9308V0.899999H49.2918V3.384H42.5758V7.57H48.6938V10.008H42.5758V14.493ZM68.2988 0.899999V3.361H63.5608V17H60.9388V3.361H56.2008V0.899999H68.2988ZM77.6152 17.299C75.1772 17.299 73.1532 16.5093 71.5432 14.93C69.9332 13.3353 69.1282 11.342 69.1282 8.95C69.1282 6.558 69.9332 4.57233 71.5432 2.993C73.1532 1.39833 75.1772 0.600999 77.6152 0.600999C80.0532 0.600999 82.0772 1.39833 83.6872 2.993C85.2972 4.57233 86.1022 6.558 86.1022 8.95C86.1022 10.514 85.7342 11.94 84.9982 13.228C84.2775 14.5007 83.2655 15.4973 81.9622 16.218C80.6742 16.9387 79.2252 17.299 77.6152 17.299ZM73.4752 13.113C74.5792 14.217 75.9592 14.769 77.6152 14.769C79.2865 14.769 80.6665 14.217 81.7552 13.113C82.8592 11.9937 83.4112 10.606 83.4112 8.95C83.4112 7.294 82.8592 5.914 81.7552 4.81C80.6665 3.69067 79.2865 3.131 77.6152 3.131C75.9592 3.131 74.5792 3.69067 73.4752 4.81C72.3712 5.914 71.8192 7.294 71.8192 8.95C71.8192 10.606 72.3712 11.9937 73.4752 13.113ZM95.1222 0.899999C96.1495 0.899999 97.0772 1.13 97.9052 1.59C98.7485 2.05 99.4078 2.68633 99.8832 3.499C100.358 4.31167 100.596 5.21633 100.596 6.213C100.596 7.731 100.075 8.996 99.0322 10.008C97.9895 11.02 96.6862 11.526 95.1222 11.526H91.8102V17H89.1652V0.899999H95.1222ZM94.9842 9.019C95.4135 9.019 95.8045 8.95 96.1572 8.812C96.5252 8.674 96.8395 8.48233 97.1002 8.237C97.3608 7.99167 97.5602 7.69267 97.6982 7.34C97.8515 6.98733 97.9282 6.61167 97.9282 6.213C97.9282 5.67633 97.7978 5.201 97.5372 4.787C97.2918 4.35767 96.9468 4.02033 96.5022 3.775C96.0575 3.52967 95.5515 3.407 94.9842 3.407H91.8102V9.019H94.9842Z" fill="white"/>
</svg>
